<svg id="Capa_1" data-name="Capa 1" xmlns="http://www.w3.org/2000/svg" viewBox="0 0 442.92 148.58"><defs><style>.cls-1{fill:#5d5856;}.cls-2{fill:#bc955c;}.cls-3{fill:#235b4e;}</style></defs><rect class="cls-1" x="169.29" y="21.93" width="12.55" height="54.26"/><polygon class="cls-1" points="244.48 21.93 244.48 76.19 234.17 76.19 207.12 43.24 207.12 76.19 194.72 76.19 194.72 21.93 205.1 21.93 232.08 54.87 232.08 21.93 244.48 21.93"/><path class="cls-1" d="M257.35,21.93H282a34.65,34.65,0,0,1,15.62,3.37,25.42,25.42,0,0,1,10.54,9.49,26.79,26.79,0,0,1,3.75,14.27,26.73,26.73,0,0,1-3.75,14.26,25.37,25.37,0,0,1-10.54,9.5A34.65,34.65,0,0,1,282,76.19H257.35Zm24,43.95q8.13,0,13-4.54t4.86-12.28q0-7.76-4.86-12.29t-13-4.53H269.91V65.88Z"/><polygon class="cls-1" points="363.39 66.11 363.39 76.19 321.37 76.19 321.37 21.93 362.38 21.93 362.38 32 333.85 32 333.85 43.79 359.05 43.79 359.05 53.56 333.85 53.56 333.85 66.11 363.39 66.11"/><path class="cls-1" d="M409.39,24.33a18.61,18.61,0,0,1,8.18,6.82,18.82,18.82,0,0,1,2.87,10.47A18.83,18.83,0,0,1,417.57,52a18.17,18.17,0,0,1-8.18,6.82,30.5,30.5,0,0,1-12.52,2.37H385.94v15H373.38V21.93h23.49a30.17,30.17,0,0,1,12.52,2.4m-4.61,24.23a8.53,8.53,0,0,0,2.94-6.94,8.61,8.61,0,0,0-2.94-7q-3-2.45-8.61-2.44H385.94V51h10.23c3.77,0,6.64-.82,8.61-2.44"/><rect class="cls-2" x="170.29" y="98.84" width="2.49" height="10.78"/><polygon class="cls-2" points="186.76 98.84 186.76 109.62 184.71 109.62 179.34 103.07 179.34 109.62 176.88 109.62 176.88 98.84 178.94 98.84 184.29 105.39 184.29 98.84 186.76 98.84"/><path class="cls-2" d="M191.93,109.46a5.92,5.92,0,0,1-1.92-.9l.85-1.88a5.77,5.77,0,0,0,1.65.81,6,6,0,0,0,1.9.31,3,3,0,0,0,1.57-.31,1,1,0,0,0,.51-.84.8.8,0,0,0-.3-.64,2.25,2.25,0,0,0-.77-.41c-.31-.1-.74-.22-1.27-.34a15.61,15.61,0,0,1-2-.59,3.19,3.19,0,0,1-1.34-.93,2.51,2.51,0,0,1-.57-1.73,3,3,0,0,1,.51-1.7,3.44,3.44,0,0,1,1.53-1.21,6.27,6.27,0,0,1,2.51-.44,8.44,8.44,0,0,1,2,.24,6.15,6.15,0,0,1,1.73.71l-.77,1.89a6.09,6.09,0,0,0-3-.84,2.72,2.72,0,0,0-1.54.34,1,1,0,0,0-.51.89.86.86,0,0,0,.58.82,8.75,8.75,0,0,0,1.77.53,17.14,17.14,0,0,1,2,.59,3.36,3.36,0,0,1,1.35.92,2.54,2.54,0,0,1,.56,1.72,3,3,0,0,1-.51,1.68,3.47,3.47,0,0,1-1.55,1.2,6.29,6.29,0,0,1-2.51.46,8.78,8.78,0,0,1-2.47-.35"/><polygon class="cls-2" points="204.3 100.87 200.85 100.87 200.85 98.84 210.24 98.84 210.24 100.87 206.79 100.87 206.79 109.62 204.3 109.62 204.3 100.87"/><rect class="cls-2" x="213.12" y="98.84" width="2.5" height="10.78"/><polygon class="cls-2" points="221.94 100.87 218.49 100.87 218.49 98.84 227.88 98.84 227.88 100.87 224.43 100.87 224.43 109.62 221.94 109.62 221.94 100.87"/><path class="cls-2" d="M231.77,108.52a4.88,4.88,0,0,1-1.28-3.64v-6H233v5.94c0,1.93.8,2.9,2.4,2.9a2.26,2.26,0,0,0,1.79-.7,3.28,3.28,0,0,0,.61-2.2V98.84h2.46v6a5.08,5.08,0,0,1-8.47,3.64"/><polygon class="cls-2" points="246.29 100.87 242.84 100.87 242.84 98.84 252.24 98.84 252.24 100.87 248.79 100.87 248.79 109.62 246.29 109.62 246.29 100.87"/><path class="cls-2" d="M257.16,109.08a5.38,5.38,0,0,1-2.87-4.85,5.46,5.46,0,0,1,.76-2.86,5.32,5.32,0,0,1,2.11-2,6.69,6.69,0,0,1,6,0,5.38,5.38,0,0,1,2.88,4.85,5.39,5.39,0,0,1-.77,2.85,5.48,5.48,0,0,1-2.11,2,6.69,6.69,0,0,1-6,0m4.75-1.84a3.2,3.2,0,0,0,1.2-1.22,3.79,3.79,0,0,0,0-3.58,3.13,3.13,0,0,0-1.2-1.22,3.6,3.6,0,0,0-3.45,0,3.09,3.09,0,0,0-1.21,1.22,3.86,3.86,0,0,0,0,3.58,3.15,3.15,0,0,0,1.21,1.22,3.6,3.6,0,0,0,3.45,0"/><path class="cls-2" d="M282.54,99.32a3.71,3.71,0,0,1,1.63,1.35,3.75,3.75,0,0,1,.57,2.08,3.8,3.8,0,0,1-.57,2.08,3.71,3.71,0,0,1-1.63,1.35,6.1,6.1,0,0,1-2.48.47h-2.17v3h-2.5V98.84h4.67a5.78,5.78,0,0,1,2.48.48m-.91,4.81a1.68,1.68,0,0,0,.58-1.38,1.7,1.7,0,0,0-.58-1.39,2.58,2.58,0,0,0-1.71-.49h-2v3.74h2a2.64,2.64,0,0,0,1.71-.48"/><path class="cls-2" d="M294.6,107.31h-5l-1,2.31h-2.56l4.8-10.78h2.47l4.82,10.78h-2.62Zm-.78-1.9-1.71-4.12-1.71,4.12Z"/><path class="cls-2" d="M307.71,109.62l-2.08-3h-2.3v3h-2.49V98.84h4.67a6,6,0,0,1,2.49.48,3.56,3.56,0,0,1,2.19,3.43,3.7,3.7,0,0,1-.58,2.07,3.57,3.57,0,0,1-1.64,1.33l2.42,3.47Zm-.63-8.26a2.64,2.64,0,0,0-1.71-.49h-2v3.76h2a2.58,2.58,0,0,0,1.71-.49,2,2,0,0,0,0-2.78"/><path class="cls-2" d="M320.79,107.31h-5l-1,2.31h-2.55l4.8-10.78h2.47l4.82,10.78h-2.62Zm-.78-1.9-1.71-4.12-1.71,4.12Z"/><path class="cls-2" d="M332.92,98.84h4.9a6.8,6.8,0,0,1,3.1.67,5.07,5.07,0,0,1,2.1,1.89,5.71,5.71,0,0,1,0,5.66,5,5,0,0,1-2.1,1.89,6.8,6.8,0,0,1-3.1.67h-4.9Zm4.78,8.73a3.62,3.62,0,0,0,2.58-.9,3.58,3.58,0,0,0,0-4.88,3.62,3.62,0,0,0-2.58-.9h-2.28v6.68Z"/><polygon class="cls-2" points="355.53 107.62 355.53 109.62 347.18 109.62 347.18 98.84 355.32 98.84 355.32 100.84 349.66 100.84 349.66 103.18 354.67 103.18 354.67 105.12 349.66 105.12 349.66 107.62 355.53 107.62"/><polygon class="cls-2" points="369.26 98.84 364.59 109.62 362.13 109.62 357.48 98.84 360.17 98.84 363.45 106.54 366.78 98.84 369.26 98.84"/><path class="cls-2" d="M373.77,109.08a5.31,5.31,0,0,1-2.12-2,5.38,5.38,0,0,1-.76-2.85,5.46,5.46,0,0,1,.76-2.86,5.29,5.29,0,0,1,2.12-2,6.69,6.69,0,0,1,6,0,5.4,5.4,0,0,1,2.87,4.85,5.3,5.3,0,0,1-.77,2.85,5.39,5.39,0,0,1-2.1,2,6.69,6.69,0,0,1-6,0m4.74-1.84a3.22,3.22,0,0,0,1.21-1.22,3.86,3.86,0,0,0,0-3.58,3.15,3.15,0,0,0-1.21-1.22,3.58,3.58,0,0,0-3.44,0,3.11,3.11,0,0,0-1.22,1.22,3.86,3.86,0,0,0,0,3.58,3.18,3.18,0,0,0,1.22,1.22,3.58,3.58,0,0,0,3.44,0"/><polygon class="cls-2" points="386.1 98.84 388.59 98.84 388.59 107.59 394 107.59 394 109.62 386.1 109.62 386.1 98.84"/><polygon class="cls-2" points="406.55 98.84 401.88 109.62 399.42 109.62 394.77 98.84 397.46 98.84 400.74 106.54 404.07 98.84 406.55 98.84"/><polygon class="cls-2" points="417.32 107.62 417.32 109.62 408.98 109.62 408.98 98.84 417.12 98.84 417.12 100.84 411.46 100.84 411.46 103.18 416.46 103.18 416.46 105.12 411.46 105.12 411.46 107.62 417.32 107.62"/><path class="cls-2" d="M427.71,109.62l-2.08-3h-2.29v3h-2.49V98.84h4.66a6,6,0,0,1,2.49.48,3.68,3.68,0,0,1,1.62,1.35,3.75,3.75,0,0,1,.57,2.08,3.49,3.49,0,0,1-2.21,3.4l2.41,3.47Zm-.63-8.26a2.63,2.63,0,0,0-1.7-.49h-2v3.76h2a2.57,2.57,0,0,0,1.7-.49,1.93,1.93,0,0,0,0-2.78"/><path class="cls-2" d="M177.38,125.08h-5l-.95,2.3h-2.56l4.8-10.77h2.47L181,127.38h-2.61Zm-.78-1.9-1.71-4.13-1.71,4.13Z"/><polygon class="cls-2" points="183.62 116.61 186.12 116.61 186.12 125.36 191.52 125.36 191.52 127.39 183.62 127.39 183.62 116.61"/><path class="cls-2" d="M207.51,117.09a3.61,3.61,0,0,1,1.62,1.35,4.06,4.06,0,0,1,0,4.15,3.61,3.61,0,0,1-1.62,1.35,6,6,0,0,1-2.49.47h-2.17v3h-2.49V116.61H205a6,6,0,0,1,2.49.48m-.92,4.81a1.94,1.94,0,0,0,0-2.77,2.58,2.58,0,0,0-1.71-.49h-2v3.74h2a2.64,2.64,0,0,0,1.71-.48"/><path class="cls-2" d="M214.15,126.29a4.93,4.93,0,0,1-1.28-3.65v-6h2.5v5.94c0,1.93.8,2.89,2.4,2.89a2.26,2.26,0,0,0,1.78-.69,3.23,3.23,0,0,0,.62-2.2v-5.94h2.46v6a4.93,4.93,0,0,1-1.28,3.65,5.7,5.7,0,0,1-7.2,0"/><polygon class="cls-2" points="234.98 125.39 234.98 127.39 226.63 127.39 226.63 116.61 234.78 116.61 234.78 118.61 229.11 118.61 229.11 120.95 234.12 120.95 234.12 122.89 229.11 122.89 229.11 125.39 234.98 125.39"/><path class="cls-2" d="M247.86,122.76a2.7,2.7,0,0,1,.53,1.68,2.46,2.46,0,0,1-1.1,2.18,5.64,5.64,0,0,1-3.21.76H238.5V116.61h5.27a5.12,5.12,0,0,1,3,.76,2.38,2.38,0,0,1,1,2,2.54,2.54,0,0,1-.38,1.4,2.59,2.59,0,0,1-1.05,1,2.76,2.76,0,0,1,1.44,1M241,118.49V121h2.47a2.54,2.54,0,0,0,1.4-.32,1.09,1.09,0,0,0,.48-1,1.06,1.06,0,0,0-.48-1,2.55,2.55,0,0,0-1.4-.31Zm4.39,6.69a1.1,1.1,0,0,0,.5-1c0-.89-.67-1.34-2-1.34H241v2.67h2.9a2.74,2.74,0,0,0,1.49-.33"/><polygon class="cls-2" points="251.82 116.61 254.31 116.61 254.31 125.36 259.72 125.36 259.72 127.39 251.82 127.39 251.82 116.61"/><path class="cls-2" d="M264.67,126.85a5.49,5.49,0,0,1,0-9.7,6.34,6.34,0,0,1,3-.73,6.23,6.23,0,0,1,3,.73,5.46,5.46,0,0,1,2.11,2,5.68,5.68,0,0,1,0,5.71,5.49,5.49,0,0,1-2.11,2,6.23,6.23,0,0,1-3,.72,6.34,6.34,0,0,1-3-.72m4.75-1.84a3.22,3.22,0,0,0,1.21-1.22,3.66,3.66,0,0,0,.44-1.8,3.61,3.61,0,0,0-.44-1.78,3.22,3.22,0,0,0-1.21-1.22,3.44,3.44,0,0,0-1.72-.44A3.48,3.48,0,0,0,266,119a3.22,3.22,0,0,0-1.21,1.22,3.61,3.61,0,0,0-.44,1.78,3.66,3.66,0,0,0,.44,1.8A3.22,3.22,0,0,0,266,125a3.48,3.48,0,0,0,1.73.44,3.44,3.44,0,0,0,1.72-.44"/><polygon class="cls-2" points="282.91 116.61 285.4 116.61 285.4 125.36 290.81 125.36 290.81 127.39 282.91 127.39 282.91 116.61"/><path class="cls-2" d="M295.75,126.85a5.42,5.42,0,0,1-2.11-2,5.74,5.74,0,0,1,0-5.71,5.39,5.39,0,0,1,2.11-2,6.34,6.34,0,0,1,3-.73,6.23,6.23,0,0,1,3,.73,5.49,5.49,0,0,1,0,9.7,6.23,6.23,0,0,1-3,.72,6.34,6.34,0,0,1-3-.72M300.5,125a3.09,3.09,0,0,0,1.21-1.22,3.66,3.66,0,0,0,.44-1.8,3.61,3.61,0,0,0-.44-1.78A3.09,3.09,0,0,0,300.5,119a3.44,3.44,0,0,0-1.72-.44,3.48,3.48,0,0,0-1.73.44,3.13,3.13,0,0,0-1.2,1.22,3.51,3.51,0,0,0-.44,1.78,3.56,3.56,0,0,0,.44,1.8,3.13,3.13,0,0,0,1.2,1.22,3.48,3.48,0,0,0,1.73.44,3.44,3.44,0,0,0,1.72-.44"/><path class="cls-2" d="M320.86,127.38l-2.08-3h-2.3v3H314V116.61h4.66a6,6,0,0,1,2.49.48,3.55,3.55,0,0,1,1.62,1.35,3.75,3.75,0,0,1,.58,2.08,3.54,3.54,0,0,1-2.22,3.41l2.42,3.45Zm-.63-8.25a2.6,2.6,0,0,0-1.71-.49h-2v3.76h2a2.6,2.6,0,0,0,1.71-.49,2,2,0,0,0,0-2.78"/><path class="cls-2" d="M329,126.85a5.49,5.49,0,0,1,0-9.7,6.61,6.61,0,0,1,6,0,5.5,5.5,0,0,1,0,9.7,6.69,6.69,0,0,1-6,0m4.75-1.84a3.13,3.13,0,0,0,1.2-1.22,3.56,3.56,0,0,0,.44-1.8,3.51,3.51,0,0,0-.44-1.78,3.13,3.13,0,0,0-1.2-1.22,3.6,3.6,0,0,0-3.45,0,3.09,3.09,0,0,0-1.21,1.22,3.61,3.61,0,0,0-.44,1.78,3.66,3.66,0,0,0,.44,1.8,3.09,3.09,0,0,0,1.21,1.22,3.6,3.6,0,0,0,3.45,0"/><path class="cls-2" d="M350.74,122.76a2.69,2.69,0,0,1,.52,1.68,2.46,2.46,0,0,1-1.1,2.18,5.6,5.6,0,0,1-3.21.76h-5.58V116.61h5.27a5.12,5.12,0,0,1,3,.76,2.36,2.36,0,0,1,1.06,2,2.62,2.62,0,0,1-.38,1.4,2.68,2.68,0,0,1-1.06,1,2.79,2.79,0,0,1,1.45,1m-6.88-4.27V121h2.47a2.58,2.58,0,0,0,1.41-.32,1.11,1.11,0,0,0,.47-1,1.08,1.08,0,0,0-.47-1,2.59,2.59,0,0,0-1.41-.31Zm4.39,6.69a1.08,1.08,0,0,0,.5-1c0-.89-.66-1.34-2-1.34h-2.91v2.67h2.91a2.7,2.7,0,0,0,1.48-.33"/><path class="cls-2" d="M361.79,125.08h-5l-1,2.3h-2.57l4.81-10.77h2.46l4.82,10.77h-2.61Zm-.78-1.9-1.71-4.13-1.72,4.13Z"/><path class="cls-2" d="M368,116.61h4.89a6.77,6.77,0,0,1,3.1.67,4.94,4.94,0,0,1,2.1,1.89,5.32,5.32,0,0,1,.74,2.82,5.39,5.39,0,0,1-.74,2.84,5,5,0,0,1-2.1,1.88,6.77,6.77,0,0,1-3.1.67H368Zm4.77,8.73a3.62,3.62,0,0,0,2.58-.9,3.59,3.59,0,0,0,0-4.89,3.66,3.66,0,0,0-2.58-.9h-2.28v6.69Z"/><path class="cls-2" d="M384.48,126.85a5.49,5.49,0,0,1,0-9.7,6.61,6.61,0,0,1,6,0,5.53,5.53,0,0,1,2.11,2,5.68,5.68,0,0,1,0,5.71,5.56,5.56,0,0,1-2.11,2,6.69,6.69,0,0,1-6,0m4.75-1.84a3.22,3.22,0,0,0,1.21-1.22,3.66,3.66,0,0,0,.43-1.8,3.61,3.61,0,0,0-.43-1.78,3.22,3.22,0,0,0-1.21-1.22,3.6,3.6,0,0,0-3.45,0,3.09,3.09,0,0,0-1.21,1.22,3.61,3.61,0,0,0-.44,1.78,3.66,3.66,0,0,0,.44,1.8,3.09,3.09,0,0,0,1.21,1.22,3.6,3.6,0,0,0,3.45,0"/><polygon class="cls-2" points="117.48 68.2 141.47 44.2 141.47 33.55 117.5 57.52 71.57 11.6 60.92 11.6 117.48 68.2"/><polygon class="cls-2" points="141.47 69.51 141.47 58.86 91.55 108.78 84.22 101.46 78.9 96.13 58.3 75.54 78.92 54.91 99.52 75.5 86.16 88.86 91.48 94.19 110.19 75.49 78.93 44.25 47.64 75.55 109.1 136.98 119.75 136.98 96.88 114.11 141.47 69.51"/><polygon class="cls-2" points="71.6 36.93 47.64 12.97 49.01 11.6 38.37 11.6 36.99 12.97 60.95 36.94 16.09 81.79 16.09 92.44 71.6 36.93"/><polygon class="cls-2" points="40.31 82.87 16.27 106.92 16.09 106.73 16.09 117.38 16.27 117.57 40.32 93.51 83.79 136.98 94.44 136.98 40.31 82.87"/><path class="cls-3" d="M144.38,139.88H13.19V8.69H144.38ZM19,134.08H138.57V14.5H19Z"/></svg>